# xmcd
#
# Track frame offsets:
# 150
# 15579
# 35295
# 66691
# 81249
# 105240
# 122517
# 140006
# 183768
# 208508
# 223898
#
# Disc length: 3178 seconds
#
#
# Revision: 0
# Processed by: cddbd v1.5.1PL0 Copyright (c) Steve Scherf et al.
# Submitted via: FreeRIP 2.53 
#
DISCID=990c680b
DTITLE=Doug Kershaw - Louisiana Man Doug Kershaw Live
DYEAR=2003
DGENRE=Cajun
TTITLE0=Diggy Diggy Lo
TTITLE1=Mama's Got The Know How
TTITLE2=Louisiana Saturday Night
TTITLE3=Cajun Baby
TTITLE4=Colinda
TTITLE5=Jambalaya
TTITLE6=Cajun Stripper
TTITLE7=Toot Toot Man
TTITLE8=Orange Blossom Special
TTITLE9=Uncle Pen
TTITLE10=Louisiana Saturday Night
EXTD=
EXTT0=
EXTT1=
EXTT2=
EXTT3=
EXTT4=
EXTT5=
EXTT6=
EXTT7=
EXTT8=
EXTT9=
EXTT10=
PLAYORDER=
